<svg id="visual" preserveAspectRatio="none" viewBox="0 0 1440 1024"  xmlns="http://www.w3.org/2000/svg" xmlns:xlink="http://www.w3.org/1999/xlink" version="1.1"><path d="M0 785L30 778.3C60 771.7 120 758.3 180 756.7C240 755 300 765 360 776C420 787 480 799 540 803.3C600 807.7 660 804.3 720 785.2C780 766 840 731 900 731C960 731 1020 766 1080 776.2C1140 786.3 1200 771.7 1260 764.3C1320 757 1380 757 1410 757L1440 757L1440 1025L1410 1025C1380 1025 1320 1025 1260 1025C1200 1025 1140 1025 1080 1025C1020 1025 960 1025 900 1025C840 1025 780 1025 720 1025C660 1025 600 1025 540 1025C480 1025 420 1025 360 1025C300 1025 240 1025 180 1025C120 1025 60 1025 30 1025L0 1025Z" fill="#f1b696"></path><path d="M0 754L30 765.2C60 776.3 120 798.7 180 803.5C240 808.3 300 795.7 360 801.5C420 807.3 480 831.7 540 827.3C600 823 660 790 720 778.3C780 766.7 840 776.3 900 788.5C960 800.7 1020 815.3 1080 825.8C1140 836.3 1200 842.7 1260 846.3C1320 850 1380 851 1410 851.5L1440 852L1440 1025L1410 1025C1380 1025 1320 1025 1260 1025C1200 1025 1140 1025 1080 1025C1020 1025 960 1025 900 1025C840 1025 780 1025 720 1025C660 1025 600 1025 540 1025C480 1025 420 1025 360 1025C300 1025 240 1025 180 1025C120 1025 60 1025 30 1025L0 1025Z" fill="#cb967e"></path><path d="M0 895L30 891.2C60 887.3 120 879.7 180 876.8C240 874 300 876 360 878.7C420 881.3 480 884.7 540 886C600 887.3 660 886.7 720 876.7C780 866.7 840 847.3 900 839.2C960 831 1020 834 1080 842.2C1140 850.3 1200 863.7 1260 858.5C1320 853.3 1380 829.7 1410 817.8L1440 806L1440 1025L1410 1025C1380 1025 1320 1025 1260 1025C1200 1025 1140 1025 1080 1025C1020 1025 960 1025 900 1025C840 1025 780 1025 720 1025C660 1025 600 1025 540 1025C480 1025 420 1025 360 1025C300 1025 240 1025 180 1025C120 1025 60 1025 30 1025L0 1025Z" fill="#a67867"></path><path d="M0 927L30 930.2C60 933.3 120 939.7 180 934C240 928.3 300 910.7 360 910C420 909.3 480 925.7 540 927.2C600 928.7 660 915.3 720 910C780 904.7 840 907.3 900 913.7C960 920 1020 930 1080 927C1140 924 1200 908 1260 896.7C1320 885.3 1380 878.7 1410 875.3L1440 872L1440 1025L1410 1025C1380 1025 1320 1025 1260 1025C1200 1025 1140 1025 1080 1025C1020 1025 960 1025 900 1025C840 1025 780 1025 720 1025C660 1025 600 1025 540 1025C480 1025 420 1025 360 1025C300 1025 240 1025 180 1025C120 1025 60 1025 30 1025L0 1025Z" fill="#825b50"></path><path d="M0 941L30 942.2C60 943.3 120 945.7 180 953.2C240 960.7 300 973.3 360 979.3C420 985.3 480 984.7 540 975.7C600 966.7 660 949.3 720 939.5C780 929.7 840 927.3 900 927.3C960 927.3 1020 929.7 1080 936.7C1140 943.7 1200 955.3 1260 958.2C1320 961 1380 955 1410 952L1440 949L1440 1025L1410 1025C1380 1025 1320 1025 1260 1025C1200 1025 1140 1025 1080 1025C1020 1025 960 1025 900 1025C840 1025 780 1025 720 1025C660 1025 600 1025 540 1025C480 1025 420 1025 360 1025C300 1025 240 1025 180 1025C120 1025 60 1025 30 1025L0 1025Z" fill="#5f403a"></path></svg>